<?xml version="1.0" standalone="no"?>
<!DOCTYPE svg PUBLIC "-//W3C//DTD SVG 1.1//EN" "http://www.w3.org/Graphics/SVG/1.1/DTD/svg11.dtd">
<svg xmlns="http://www.w3.org/2000/svg">
<metadata>Copyright (C) 2019 by original authors @ fontello.com</metadata>
<defs>
<font id="phg-ashes" horiz-adv-x="1000" >
<font-face font-family="phg-ashes" font-weight="400" font-stretch="normal" units-per-em="1000" ascent="850" descent="-150" />
<missing-glyph horiz-adv-x="1000" />
<glyph glyph-name="basic-magic" unicode="&#xe800;" d="M836-132c46 47 119 106 146 264 27-51 154-264 154-264h-300z m-272-18c-190 0-346 164-346 355a346 346 0 0 0 309 343v75s-85-8-118-27c21 32 155 254 155 254s138-229 154-254c-43 32-118 27-118 27v-75a346 346 0 0 0 309-343c0-191-156-355-345-355z m-255 355c0-140 119-255 218-255v500c-99 0-218-105-218-245z m291 245v-500c99 0 218 115 218 255 0 140-119 245-218 245z m-600-582s119 213 146 264c12-147 100-217 145-264h-291z" horiz-adv-x="1136" />

<glyph glyph-name="ceremonial-class" unicode="&#xe801;" d="M814 405c55-41 95-69 129-93-205-305-265-462-527-462-137 0-322 55-416 157 329 107 425 416 527 518-40 28-120 83-120 83l37 56s84-60 120-84c133 270 444 269 444 269l55-306s-142 8-249-138z m-564-352c-28-19-65-43-102-64 432-203 571 104 712 305-23 14-83 55-83 55s-217-470-527-296z m46 47c257-93 425 286 425 286l-148 102s-181-310-277-388z m656 675c-255-52-342-232-342-232l148-101s110 153 222 157c-32 25-92 74-92 74s35 57 64 102z" horiz-adv-x="1063" />

<glyph glyph-name="ceremonial-power" unicode="&#xe802;" d="M968 590s16-158-101-202h-118v-193c-63-1-143-80-143-126v-110l-126-109-126 109v110c0 46-79 126-134 126v193h-118c-122 41-101 202-101 202h210s39 160-117 260c136 0 319-76 319-185h135c0 110 165 183 319 185-159-105-118-260-118-260h219z m-362-412c25 38 68 56 93 67v151c-16-63-56-75-93-75v-143z m-193-194l67-58 68 58v118l-68-50-67 50v-118z m-143 261c25-11 68-37 93-76v152c-37 0-76 3-93 67v-143z m-42 546c67-76 42-201 42-201h93s21 152-135 201z m370-201h92s-16 125 51 201c-156-49-143-201-143-201z m-50-51v76h-135v-76h-353s21-92 93-92h260v-219l67-42 68 42v219h260c90 0 93 92 93 92h-353z" horiz-adv-x="968" />

<glyph glyph-name="charm-class" unicode="&#xe803;" d="M226 847c-60-10-107-33-145-71-29-30-49-63-64-107-14-42-16-56-16-103 1-37 1-43 6-62 14-51 43-100 103-175 34-43 79-96 194-227 57-66 129-149 160-186l58-66 9 10c47 56 183 214 253 295 171 197 210 246 236 301 16 33 21 57 23 99 1 39-1 59-10 92-14 56-37 97-74 133-37 35-73 54-125 65-27 6-97 6-123 0-40-9-73-23-105-46-20-15-54-50-71-74l-13-17-15 23c-39 59-94 96-166 113-25 6-88 7-115 3z m103-65c41-8 69-25 102-63l18-21-18-10c-57-35-90-76-105-133-7-24-7-64 0-88 11-40 35-78 68-104 19-15 51-32 76-40l16-5 0-161c0-88 0-160-1-160 0 0-20 22-42 49-24 27-87 101-141 164-103 120-138 162-168 204-64 85-80 137-64 199 10 40 33 80 61 110 36 37 75 57 124 62 20 2 52 1 74-3z m481 0c36-7 67-24 96-54 59-58 86-138 67-200-12-43-42-89-108-171-14-18-70-84-124-147-54-63-117-137-140-164-23-27-42-49-43-49 0 0-1 72-1 160l0 161 16 5c25 8 57 25 77 40 32 26 57 64 67 104 7 24 7 64 1 88-16 57-49 99-106 133l-18 10 17 20c39 44 74 63 127 67 23 2 50 1 72-3z m-256-135c43-11 80-43 94-85 10-29 11-59 0-89-7-22-18-38-35-54-17-16-29-23-51-30-14-5-20-6-40-6-38 0-64 10-91 36-40 37-54 92-36 143 7 19 17 35 33 50 33 33 81 46 126 35z" horiz-adv-x="1043" />

<glyph glyph-name="charm-power" unicode="&#xe804;" d="M664-90h-397l-60 69-147-129v267l-60 61v396l267 276h328v-181h190l146-155v-328z m-543 78l43 34-43 35v-69z m750 509l-112 112h-164v-61l95-86v-172l-130-112h-60v-121h-60v121h-69l-130 112v181l95 77v121h61v-155l-95-78v-60c93 0 155-72 155-138h26c0 66 52 138 146 138v52l-94 86v276h-233l-242-242v-345l233-232h345l233 232v294z m-242-173c-56 0-69-47-86-86 10 0 87 77 86 86z m-232-86c-17 39-39 86-95 86-1-9 85-86 95-86z" horiz-adv-x="931" />

<glyph glyph-name="discard" unicode="&#xe805;" d="M795 233l63-62 80 80 62-401-400 62 80 80-63 63-169-169c-28-28-88-28-116 0l-311 311a79 79 0 0 0 0 107l525 525c28 28 88 28 116 0l311-311a79 79 0 0 0 0-107z m125 258l-294 294a36 36 0 0 1-44 0l-517-517a24 24 0 0 1 0-35l303-303a24 24 0 0 1 36 0l169 169-71 72v80l258-259-36-44 205-27-27 205-44-36-356 356v81l249-250 169 169a36 36 0 0 1 0 45z" horiz-adv-x="1000" />

<glyph glyph-name="exhaust" unicode="&#xe806;" d="M1089 484c-115-205-266-293-381-330l-163-304-165 308c-110 39-253 128-380 326a749 749 0 0 0 117 164l-108 202h1071l-107-200a724 724 0 0 0 116-166z m-80 0a944 944 0 0 1-71 100l-187-348c75 37 163 109 258 248z m-464-500l80 150a493 493 0 0 0-80-7 446 446 0 0 0-81 8z m-120 224a456 456 0 0 1 120-10c25 0 65-4 117 7l135 252h-74s-9-161-178-161c-170 0-179 161-179 161h-74z m236 249h-54s-1-53-62-53c-62 0-63 53-63 53h-53s17-98 116-98 116 98 116 98z m-581 27c95-132 181-203 255-242l-182 339a1203 1203 0 0 1-73-97z m36 304l50-94a661 661 0 0 0 141 94h-191z m429-9c-59 0-183 20-346-147l60-112h571l62 115c-152 153-291 144-347 144z m243 9a636 636 0 0 0 137-91l48 91h-185z" horiz-adv-x="1089" />

<glyph glyph-name="illusion-class" unicode="&#xe807;" d="M369-150l-369 315v424c0 143 163 261 279 261h190c100 0 270-87 270-261v-424z m-306 351l306-270v252h-153s-1 141 27 199h-180v-181z m306 586c-363 29-306-342-306-342h207s75 223 307 297c-62 47-114 46-208 45z m262-90c-346-145-343-451-343-451h144v-261l244 216v352s9 51-45 144z m-117-369a90 90 0 1 0 90 90 90 90 0 0 0-90-90z" horiz-adv-x="739" />

<glyph glyph-name="illusion-power" unicode="&#xe808;" d="M949 214a171 171 0 0 1-127 51c33-24 60-55 59-135-61 73-178 82-254 51 20-13 68-43 68-43v-186l-119-102h-203l-119 102v186s47 30 68 43c-54 31-194 22-254-51 0 66 22 111 59 135-20 0-89-16-127-51 0 97 123 314 153 314-30 24-26 127-26 127s-8 118 76 195c30-24 155-178 178-203 35 13 94 17 94 17s72-6 101-17c22 22 119 146 170 203 84-86 85-203 85-203s-3-85-34-119c34 0 152-218 152-314z m-779 263c-1-16-56-117-68-152 27 20 144 1 144-9-25-8-65-43-60-68 31 27 134 26 153 0v119c-42 0-142 66-169 110z m42 271c-14-18-29-160-9-178 15 12 70 60 111 60-26 18-86 100-102 118z m263-152c-67 0-206-40-255-85 46-66 178-102 178-102v-262l-84-51v-110l76-60v102h169v-102l77 60 0 112-85 57 0 254s119 24 178 102c-94 65-180 85-254 85z m271 152c-16-18-85-100-110-118 40 0 96-48 110-60 20 18 14 160 0 178z m-136-381v-119c19 26 123 27 153 0 5 25-27 60-51 68 0 10 117 29 144 9-13 35-76 128-76 144-28-45-128-102-170-102z" horiz-adv-x="949" />

<glyph glyph-name="main-action" unicode="&#xe809;" d="M831-6l-348-144-339 144-144 356 144 356 339 144 348-144 135-356z m65 349l-218-78 51-169-161 42-72-215 284 122z m-693 7c192-31 249-114 280-280 56 200 95 241 280 280-114 16-223 37-280 288-33-215-87-266-280-288z m-8-305l275-121-72 214-161-42 51 169-217 78z m-124 312l217 78-51 169 170-51 63 223-284-121z m709 298l-282 121 70-223 161 51-51-169 218-78z" horiz-adv-x="966" />

<glyph glyph-name="natural-class" unicode="&#xe80a;" d="M516 21h-126v-171h-72v171h-126c-384 305-120 761 162 829 290-60 542-532 162-829z m-198 757s-130-69-153-135c49-34 153-108 153-108v243z m0-315l-189 135a364 364 0 0 1-54-162c73-49 243-163 243-163v190z m0-271l-243 172s1-152 135-280h108v108z m72-108h108c134 128 135 280 135 280l-243-172v-108z m0 694v-243s104 74 153 108c-23 66-153 135-153 135z m189-180l-189-135v-190s170 114 243 163a364 364 0 0 1-54 162z" horiz-adv-x="709" />

<glyph glyph-name="natural-power" unicode="&#xe80b;" d="M1192-150s-1104-1-1192 0c0 418 208 720 646 869 0 53 39 131 142 131 93 0 121-71 121-71s177-1 222 0c-1-307 17-418-192-616 177-162 253-232 253-232v-81z m-1111 71h676l-151 152h-111c0 130-81 212-192 212-204 0-222-259-222-364z m707 868a81 81 0 0 1 0-161c43 0 70 38 70 81s-27 80-70 80z m242-373c-175 49-218-126-151-192 40 3 156 130 151 192z m-252-111c0 50 25 202 191 202 73-1 81-31 81-31l10 223h-131s-2-132-141-132c-67 0-123 42-142 81-87-19-352-176-424-303a156 156 0 0 0 81 20c226 0 263-222 263-222h80l222-222s176 0 213 0c-247 244-303 269-303 384z" horiz-adv-x="1192" />

<glyph glyph-name="side-action" unicode="&#xe80c;" d="M463 840c-4-12-27-95-53-189-33-116-49-152-82-183-30-28-65-43-188-82-46-14-97-30-113-35l-28-10 13-4c8-3 59-20 115-40 55-18 111-38 125-44 67-27 95-49 119-97 13-27 25-62 50-149 23-82 44-155 45-156 1-1 11 31 23 70 58 191 63 206 80 240 22 43 44 64 90 86 28 14 59 24 165 57 108 34 119 38 115 39-7 3-96 31-155 50-69 21-104 33-125 44-52 26-76 57-103 131-5 14-23 70-39 124-17 54-35 112-41 129l-10 30-3-11z m18-238c39-140 59-173 126-206 24-12 93-37 138-49 7-2 13-4 13-5 0-1-13-4-29-8-122-29-161-48-192-93-19-29-35-72-58-159-7-23-12-42-12-43-1 0-5 15-11 34-31 111-48 149-79 181-30 30-60 44-161 74-27 8-42 14-40 15 2 0 23 5 46 11 92 22 127 36 156 64 30 29 46 66 73 175 9 32 15 58 16 57 0 0 6-22 14-48z" horiz-adv-x="941" />

<glyph glyph-name="divine-power" unicode="&#xe80f;" d="M970 275c-48-59-103-128-103-128s3-53-18-86c-65-103-268-134-300-198-22-43-43 35-51 35-10 0-29-78-52-35-32 63-198 86-300 198-20 21-17 86-17 86s-52 63-103 128c72 83-26 258-26 258l60 94 17 146s217 77 283 77c85 0 103-34 138-34s51 34 137 34c67 0 283-77 283-77l17-146 60-94s-102-176-25-258z m-146-60l68 60s-36 67 0 172a936 936 0 0 1-103 34s-15-15-25-26c-52-21-9-60-9-60v-103z m-301-266s184 89 232 120c38 25 34 103 34 103l-68 69-69-34v-78l-129-68v-112z m-25 180l77 43v35l-77 43-86-43v-35z m-258-60c49-31 232-120 232-120v112l-129 68v78l-68 34-69-69s-4-78 34-103z m-137 206l69-60 68 77v103s43 39-8 60c-11 11-26 26-26 26a936 936 0 0 1-103-34c36-105 0-172 0-172z m369 489l-120 26-206-60-17-129-52-68 9-35 111 35s30 144 95 171c36 15 180-26 180-26v86z m-172-128l-34-121 51-51v-77l-17-26v-60l86-43 77 43v60l-68 26s9 98-69 163c34 10 77-4 94-17 30-22 26-95 26-95h103s-3 72 26 95a120 120 0 0 0 94 17c-77-65-68-163-68-163l-69-26v-60l77-43 86 43v60l-17 26v77l51 51-34 121-197-43z m567-35l-18 129-206 60-120-26v-86s144 41 181 26c65-27 94-171 94-171l111-35 9 35z" horiz-adv-x="995" />

<glyph glyph-name="divine-class" unicode="&#xe810;" d="M138 848c-53-7-99-38-122-83-18-34-16 12-16-477l1-437 157 277c86 152 158 277 158 279 1 1 7 0 15-4 7-4 19-8 26-9 9-2 14-4 13-6 0-1-12-24-26-50-15-26-36-66-47-90-35-71-45-105-35-117 7-9 25-8 58 4 15 5 28 9 30 10 4 1 4-4 4-86l0-87 70-61c38-33 70-60 72-60 1 0 33 27 71 60l70 61 0 88 0 88 12-5c21-10 49-17 63-18 11 0 14 1 17 5 5 6 4 14-3 38-11 35-49 116-89 189-10 18-17 33-17 33 0 0 7 2 15 4 7 2 19 6 26 9 8 4 13 5 14 4 0-2 72-127 158-279l157-277 1 447c0 435 0 447-4 459-17 48-71 83-142 91-30 3-106 2-149-4l-32-4 0-174c0-183 0-184-11-195-5-6-20-13-27-13-5 0-5 0-1 5 10 15 14 57 9 82-6 27-17 47-37 67-28 29-59 41-103 41-43 0-73-12-100-38-27-28-38-56-38-102-1-29 2-41 10-51l5-5-10 2c-13 2-22 7-28 17-4 7-4 11-5 186l-1 178-23 3c-63 7-130 9-166 5z m116-64l8-2 0-78-1-79-96-41c-53-23-97-41-98-41-3 0-2 127 1 150 6 54 36 80 102 90 10 2 75 2 84 1z m589-5c49-11 75-39 81-86 3-23 3-150 0-150-1 0-45 18-98 41l-96 41-1 79 0 79 6 0c3 1 25 1 49 1 31 0 47-1 59-5z m-317-199c16-7 29-19 36-34 6-12 6-16 6-33 0-19 0-21-8-35-14-25-36-38-65-38-29 0-51 13-65 38-7 14-7 16-7 35 0 15 1 22 4 30 18 37 62 54 99 37z m-267-62c0-26 1-32 6-46l5-16-101-161c-56-88-102-161-103-162 0-1-1 72 0 161l0 163 95 45c53 25 96 45 97 45 1 0 1-13 1-29z m571-16l95-45 1-163c0-89-1-162-1-161-1 1-47 74-103 163l-101 161 4 10c5 14 8 45 7 64-1 9-1 16 0 16 1 0 45-20 98-45z m-366-135c21-4 43-4 65 0 9 2 18 4 20 4 3 0 67-133 65-135-1 0-28 12-60 26l-58 27-59-27c-32-14-59-26-59-26-1 1 11 28 26 59 15 32 29 63 31 68 4 7 6 9 9 8 2-1 11-3 20-4z m69-172l37-19-1-79 0-80-37-32-36-32-37 32-37 32 0 80 0 79 36 19c20 10 37 18 37 18 0 0 17-8 38-18z" horiz-adv-x="991" />

<glyph glyph-name="time-power" unicode="&#xe811;" d="M800 424l-9-235 87-95v-70l-148-174-113 165-60-8-61-44h-26l-61 44-61 8-113-165-148 174v70l87 95-9 235h-165s52 262 139 270c69 0 174-35 174-35v113l139 78h61l139-78v-113s105 35 174 35c85-9 139-270 139-270h-165z m-61-452l70 78v17l-44 53-78-70z m-104 130c62 28 95 87 95 87l9 131h-104l-52-105s14-32 52-113z m-35 235l-61 104h-113l-61-104 61-104h113z m-130-287h26s50 35 95 35c-25 47-52 104-52 104h-113s-24-45-52-104c42 0 96-35 96-35z m-87 165l-53 105h-104l9-131s34-59 95-87c39 81 53 113 53 113z m-226-148v-17l69-78 52 78-78 70z m-9 548c-40-42-61-121-61-121h87s13 65 61 104c-40 9-23 4-87 17z m78-252h104l53 96s-13 24-61 121c-115-43-96-217-96-217z m348 365l-78 52h-26l-79-52v-61h183v61z m9-121h-200l-18-9 61-113h113l61 113z m61-27c-49-97-61-121-61-121l52-96h104s20 174-95 217z m173 35c-64-13-46-8-87-17 48-39 61-104 61-104h87s-20 79-61 121z" horiz-adv-x="965" />

<glyph glyph-name="time-class" unicode="&#xe812;" d="M522 350c288-144 350-117 350-500h-872c0 383 63 356 350 500-326 134-350 79-350 500h872c0-421-24-366-350-500z m276-426c0 299-96 245-330 383v-202l266-181h64z m-149 0l-192 118h-42l-181-118h415z m-574 0h63l266 181v202c-236-138-329-84-329-383z m329 479h64s261 63 309 149h-681c48-86 308-149 308-149z m415 373h-755s1-132 11-171h723c10 39 21 171 21 171z" horiz-adv-x="872" />

<glyph glyph-name="time-power-alt" unicode="&#xe813;" d="M715 17l121 140-74 74v-56l-214-148h-84s0-177-102-177h-102c28 77 9 177 9 177l-83 9-9 83s-104 19-177-9v102c0 103 177 102 177 102v84l148 214h56l-74 74-140-121s-55 47-55 93c46 158 209 305 464 65v-111l56 55 158-27 27-158-55-56h120c241-255 84-418-74-465-46 0-93 56-93 56z m-539 242s-120-12-120-37v-47c28 18 120 0 120 0v84z m530-47v140h-102v-112l46-56z m-242-120h56l103 65-47 55-112-28v-92z m103 157v103l-65 65h-103l-27-130 64-65z m-242-343h47c25 0 37 120 37 120h-84s18-92 0-120z m-83 251l9-56 56-9h120v83l-102 102h-83v-120z m65 306l-65-93v-56h92l28 112z m55 93l-37-56 65-46h112v102h-140z m149 139c-186 231-325-9-325-37 46 46 84 84 121 84 37 0 139-130 139-130h65v83z m28-139v-111l56-56h111z m195 28l-65 9-37-37 74-74 37 37z m28-223v-65s130-102 130-139c0-37-38-75-84-121 27 0 269 140 37 325h-83z" horiz-adv-x="1006" />

<glyph glyph-name="basic-magic-alt" unicode="&#xe814;" d="M941-98a436 436 0 0 1 111 274l177-274h-288z m-326-52a344 344 0 1 0 343 344 344 344 0 0 0-343-344z m0 604a260 260 0 0 1-42-517v236l-125-52 167 260 166-260-125 52v-236a260 260 0 0 1-41 517z m-162 146l162 250 162-250a437 437 0 0 1-324 0z m-453-698l178 274a436 436 0 0 1 111-274h-289z" horiz-adv-x="1229" />

<glyph glyph-name="sympathy-class" unicode="&#xe81e;" d="M789-73c-87 0-183 30-183 154 0 105 95 154 183 154 77 0 115-39 115-39v183l-548-96v-318a201 201 0 0 0-183-115c-96 0-173 76-173 154 0 96 96 154 173 154 86 0 116-39 116-39v596l682 135v-817a201 201 0 0 0-182-106z m-10 240c-42 0-106-20-106-86 0-66 76-87 116-87s105 38 105 96c0 56-73 78-115 77z m-606-77c-42 0-106-20-106-86 0-66 76-87 116-87s106 38 106 97c0 56-74 77-116 76z m731 674l-548-106v-154l548 106v154z m0-222l-548-105v-87l548 96v96z" horiz-adv-x="971" />

<glyph glyph-name="sympathy-power" unicode="&#xe81f;" d="M615 829c-10-25-6-24-46-16-80 17-165 13-240-12-72-24-132-64-185-125l-16-18 11-8c7-4 13-8 14-9 1-1-5-10-14-19-59-63-106-152-126-238-18-74-17-167 3-232l3-9 13 9c12 8 13 9 15 5 0-2 6-20 13-39 44-137 114-238 184-263 12-5 15-5 223-5 133 0 211 1 211 2 0 2-28 84-47 137l-6 17-15 1c-30 4-60 17-77 36-17 20-22 50-14 85l4 15 10-1c12-1 38 2 53 7l11 3 31-23c18-12 45-31 60-41l28-18 0-46 0-46 59-50c32-27 60-49 61-49 1 1 39 46 84 101 91 111 90 110 88 136 0 12-3 20-15 45-7 16-49 107-94 202l-80 173-13 13c-8 7-21 18-29 24l-14 11 4 17c7 25 7 75 0 98-13 46-41 85-83 117-16 11-55 34-59 34-1 0-5-10-10-21z m-101-69c25-3 59-9 62-11 1-1-4-13-11-28l-13-26-37 1c-54 0-96-6-138-20-33-11-64-28-83-46l-9-9-31 18c-17 10-31 18-31 19 0 1 8 10 18 20 48 46 111 73 184 82 24 2 66 2 89 0z m161-20c31-34 36-85 13-150-4-12-7-24-7-25 1-2 19-16 41-33l40-31 81-184c44-102 83-190 85-196 5-16 3-26-9-44-26-38-83-115-84-114-1 0-16 12-33 26l-31 27 0 46-1 46-42 31c-23 17-62 46-86 64l-45 33-9-5c-14-7-38-10-60-7-59 8-108 44-124 93-3 9-4 19-4 42 0 27 0 31 7 50 8 24 19 46 34 69l11 17-5 8c-5 8-18 18-27 20-26 6-61-51-77-123-6-29-6-82-1-107 14-59 49-103 101-125 8-3 14-6 15-6 0 0-1-10-3-21-8-42-1-85 18-114 19-29 56-55 91-64l15-4 8-27 10-27-110 0-110 0-12 9c-104 81-174 242-168 389 1 42 6 65 19 98 19 49 46 95 76 130 68 80 171 116 275 94 11-2 21-3 22-2 1 1 39 82 57 121l6 14 7-4c4-2 11-9 16-14z m-453-150c11-6 20-12 22-13 1-1-4-8-13-18-41-42-73-100-89-158-8-34-12-58-14-95l-1-34-29-13c-16-7-30-12-32-12-3 0-3 56 1 87 10 78 41 150 90 216 14 19 43 51 45 51 1 0 10-5 20-11z m-81-394c4-27 17-75 26-103 26-76 57-131 98-171l17-17-7-4c-4-3-8-5-9-5-3 0-27 16-37 25-45 38-97 128-137 240-4 13-8 25-8 26 0 3 51 29 53 27 0-1 2-9 4-18z m484 254c5-13 15-37 22-54 7-16 13-30 14-31 1-1 16 0 35 3 19 2 35 4 36 4 1 0 2 1 2 2 0 3-34 78-36 80-1 2-74 19-81 19-1 0 2-9 8-23z" horiz-adv-x="1009" />
</font>
</defs>
</svg>
